<svg width="238" height="32" fill="none" xmlns="http://www.w3.org/2000/svg"><path d="M12 24.3H8.4v-6l-6.9-15h3.8L10.7 15c1 2.2 1.3 3 1.3 5.7v3.6Zm2.4-10.9h-3.7l4.5-10.1h3.7l-4.5 10.1Zm38.2 11.2c-3.4 0-5.8-2.8-5.8-7.8s2.4-8 6-8c1.5 0 2.8.7 3.7 2V3.4h3.6v21h-3.3l-.2-2a4.7 4.7 0 0 1-4 2.3Zm22-1.4a9 9 0 0 1-5 1.4c-4.6 0-7.2-2.6-7.2-7.9 0-4.6 2-8 6.5-8 3.5 0 5.9 2 5.9 7.4V18H66c.2 2.5 1.2 3.7 3.8 3.7 1.7 0 3.6-.6 4.7-1.4v3ZM29.5 14v6.7l.1 3.7h-3.5L26 23h-.2c-.7.7-1.6 1.4-3.7 1.4-2.8 0-4.6-1.7-4.6-4.6 0-3.2 2.4-5 7.9-5h.6v-1c0-1.6-.8-2.2-2.5-2.2a8 8 0 0 0-5 2v-3c1.1-.9 3-1.9 5.4-1.9 3.8 0 5.7 1.4 5.7 5.1Zm6.5-.5v10.9h-3.6V9h3.5v1.3h.2c.8-.8 2-1.6 4.2-1.6 3 0 4.1 1.4 4.1 4.4v11h-3.6V13.7c0-1.2-.5-1.7-1.8-1.7a4 4 0 0 0-3 1.5Zm49.7 10.9L82.4 19l-3 5.2h-3.7l4.8-8L76 9.2h4l3 4.6L85.5 9H89l-4.2 7.4 5 7.8h-4.1Zm-32-12.7c-2.1 0-3.2 1.6-3.2 5.2 0 3.4 1 5 3 5s3-1.6 3-5.1c0-3.5-1-5-2.9-5Zm15.1 0c-1.7 0-2.6 1.3-2.7 3.7h5V15c0-1.9-.5-3.4-2.3-3.4Zm-43 9v-3.3h-.5c-3 0-4.3.6-4.3 2.3 0 1.4.8 2.3 2.3 2.3 1.3 0 2.1-.6 2.6-1.3Z" fill="#000"/><g clip-path="url(#a)"><rect x="95.4" width="28" height="28" rx="14" fill="#5282FF"/><path fill-rule="evenodd" clip-rule="evenodd" d="M102 26c-9.2 0-16.7-5.3-16.7-12S92.8 2 102 2c9.8 0 16.8 5.1 16.8 12s-7 12-16.8 12Zm0-7C93.1 19 87 16.9 87 14S93 9 102 9c9 0 15.2 1.8 15.2 5s-6.3 5-15.2 5Z" fill="#fff"/><path opacity=".3" transform="rotate(-120 98.4 36)" fill="url(#b)" d="M98.4 35.9h17.5v18H98.4z"/><path opacity=".3" transform="rotate(-60 86.7 7)" fill="url(#c)" d="M86.7 7.1h17.5v18H86.7z"/></g><path d="M129.6 3.3h5c5.4 0 9.6 2.7 9.6 10.4 0 6.8-4.2 10.6-10 10.6h-4.6v-21Zm4.3 18.1c4 0 6.6-2.6 6.6-7.8 0-5.6-2.6-7.5-6.3-7.5h-1v15.3h.7ZM157.7 14v6.6c0 1.2 0 2.4.2 3.7h-3.5L154 23h-.2c-.6.7-1.5 1.4-3.7 1.4-2.7 0-4.6-1.7-4.6-4.8 0-3.1 2.4-5 8-5h.5V14c0-1.6-.8-2.2-2.5-2.2-1.8 0-4 .8-5 1.5v-3c1.2-.6 3-1.4 5.4-1.4 3.8 0 5.7 1.4 5.7 5.1Zm-3.6 6.6v-3.4h-.5c-3 0-4.3.6-4.3 2.4 0 1.3.7 2.3 2.2 2.3 1.3 0 2.1-.6 2.6-1.3ZM159 9h2V5.9h3.6V9h3.7v2.8h-3.7v7.8c0 1.2.7 2 2.2 2 1.2 0 1.8-.5 1.8-.5v3s-1 .4-2.7.4c-3.3 0-5-2-5-4.9V12h-1.8V9.1ZM181.8 14v6.6c0 1.2 0 2.4.2 3.7h-3.5l-.3-1.2h-.1c-.7.7-1.6 1.4-3.8 1.4-2.7 0-4.6-1.7-4.6-4.8 0-3.1 2.4-5 8-5h.5V14c0-1.6-.8-2.2-2.5-2.2-1.8 0-4 .8-5 1.5v-3c1.2-.6 3-1.4 5.4-1.4 3.8 0 5.7 1.4 5.7 5.1Zm-3.6 6.6v-3.4h-.5c-3 0-4.3.6-4.3 2.4 0 1.3.7 2.3 2.2 2.3 1.3 0 2.2-.6 2.6-1.3ZM184.7 3.3h3.6v18.1h7.4v2.9h-11v-21ZM209 23.2a9 9 0 0 1-5.1 1.4c-4.6 0-7.2-2.6-7.2-7.9 0-4.6 2.1-8 6.5-8 3.6 0 5.9 2 5.9 7.4V18h-8.7c.2 2.5 1.2 3.7 3.8 3.7 1.8 0 3.6-.6 4.7-1.4v3ZM203 11.6c-1.7 0-2.6 1.3-2.7 3.7h5V15c0-1.9-.5-3.4-2.3-3.4ZM215 13.4v10.9h-3.5V9h3.5v1.3h.3c.7-.8 2-1.6 4.1-1.6 3 0 4.1 1.4 4.1 4.4v11H220V13.7c0-1.2-.5-1.7-1.8-1.7a4 4 0 0 0-3 1.5ZM231 24.6c-3.4 0-5.1-1.4-5.1-1.4v-3c.3.2 2 1.5 4.6 1.5 2 0 3-.5 3-1.7 0-1.3-1.1-2-3.2-2.2-3-.4-4.5-1.8-4.5-4.5 0-2.6 2-4.5 5.7-4.5 3 0 4.4.8 4.4.8v3c-.2-.2-1.7-1-4-1-1.7 0-2.6.4-2.6 1.6 0 1.4 1.3 1.6 2.8 1.8 3 .5 4.9 1.8 4.9 4.5 0 3.6-2.4 5-6 5Z" fill="#000"/><defs><linearGradient id="b" x1="107.2" y1="35.9" x2="107.2" y2="53.9" gradientUnits="userSpaceOnUse"><stop stop-color="#5282FF"/><stop offset="1" stop-color="#5282FF" stop-opacity="0"/></linearGradient><linearGradient id="c" x1="95.5" y1="7.1" x2="95.5" y2="25.1" gradientUnits="userSpaceOnUse"><stop stop-color="#5282FF"/><stop offset="1" stop-color="#5282FF" stop-opacity="0"/></linearGradient><clipPath id="a"><rect x="95.4" width="28" height="28" rx="14" fill="#fff"/></clipPath></defs></svg>